solid ASCII
  facet normal -1.000000e+00 0.000000e+00 0.000000e+00
    outer loop
      vertex   1.000000e+02 -7.000000e+01 -1.600000e+00
      vertex   1.000000e+02 -1.100000e+02 -1.600000e+00
      vertex   1.000000e+02 -7.000000e+01 0.000000e+00
    endloop
  endfacet
  facet normal -1.000000e+00 -0.000000e+00 0.000000e+00
    outer loop
      vertex   1.000000e+02 -7.000000e+01 0.000000e+00
      vertex   1.000000e+02 -1.100000e+02 -1.600000e+00
      vertex   1.000000e+02 -1.100000e+02 0.000000e+00
    endloop
  endfacet
  facet normal 0.000000e+00 -1.000000e+00 0.000000e+00
    outer loop
      vertex   6.000000e+01 -7.000000e+01 -1.600000e+00
      vertex   1.000000e+02 -7.000000e+01 -1.600000e+00
      vertex   6.000000e+01 -7.000000e+01 0.000000e+00
    endloop
  endfacet
  facet normal 0.000000e+00 -1.000000e+00 0.000000e+00
    outer loop
      vertex   6.000000e+01 -7.000000e+01 0.000000e+00
      vertex   1.000000e+02 -7.000000e+01 -1.600000e+00
      vertex   1.000000e+02 -7.000000e+01 0.000000e+00
    endloop
  endfacet
  facet normal -1.000000e+00 0.000000e+00 0.000000e+00
    outer loop
      vertex   6.000000e+01 -5.000000e+01 -1.600000e+00
      vertex   6.000000e+01 -7.000000e+01 -1.600000e+00
      vertex   6.000000e+01 -5.000000e+01 0.000000e+00
    endloop
  endfacet
  facet normal -1.000000e+00 -0.000000e+00 0.000000e+00
    outer loop
      vertex   6.000000e+01 -5.000000e+01 0.000000e+00
      vertex   6.000000e+01 -7.000000e+01 -1.600000e+00
      vertex   6.000000e+01 -7.000000e+01 0.000000e+00
    endloop
  endfacet
  facet normal -2.235174e-08 1.000000e+00 0.000000e+00
    outer loop
      vertex   1.000000e+02 -5.000000e+01 -1.600000e+00
      vertex   6.000000e+01 -5.000000e+01 -1.600000e+00
      vertex   1.000000e+02 -5.000000e+01 0.000000e+00
    endloop
  endfacet
  facet normal -2.235174e-08 1.000000e+00 0.000000e+00
    outer loop
      vertex   1.000000e+02 -5.000000e+01 0.000000e+00
      vertex   6.000000e+01 -5.000000e+01 -1.600000e+00
      vertex   6.000000e+01 -5.000000e+01 0.000000e+00
    endloop
  endfacet
  facet normal -1.000000e+00 4.470348e-08 0.000000e+00
    outer loop
      vertex   1.000000e+02 -1.000000e+01 -1.600000e+00
      vertex   1.000000e+02 -5.000000e+01 -1.600000e+00
      vertex   1.000000e+02 -1.000000e+01 0.000000e+00
    endloop
  endfacet
  facet normal -1.000000e+00 4.470348e-08 0.000000e+00
    outer loop
      vertex   1.000000e+02 -1.000000e+01 0.000000e+00
      vertex   1.000000e+02 -5.000000e+01 -1.600000e+00
      vertex   1.000000e+02 -5.000000e+01 0.000000e+00
    endloop
  endfacet
  facet normal 0.000000e+00 1.000000e+00 -0.000000e+00
    outer loop
      vertex   1.200000e+02 -1.000000e+01 -1.600000e+00
      vertex   1.000000e+02 -1.000000e+01 -1.600000e+00
      vertex   1.200000e+02 -1.000000e+01 0.000000e+00
    endloop
  endfacet
  facet normal 0.000000e+00 1.000000e+00 0.000000e+00
    outer loop
      vertex   1.200000e+02 -1.000000e+01 0.000000e+00
      vertex   1.000000e+02 -1.000000e+01 -1.600000e+00
      vertex   1.000000e+02 -1.000000e+01 0.000000e+00
    endloop
  endfacet
  facet normal 1.000000e+00 -4.470348e-08 0.000000e+00
    outer loop
      vertex   1.200000e+02 -5.000000e+01 -1.600000e+00
      vertex   1.200000e+02 -1.000000e+01 -1.600000e+00
      vertex   1.200000e+02 -5.000000e+01 0.000000e+00
    endloop
  endfacet
  facet normal 1.000000e+00 -4.470348e-08 0.000000e+00
    outer loop
      vertex   1.200000e+02 -5.000000e+01 0.000000e+00
      vertex   1.200000e+02 -1.000000e+01 -1.600000e+00
      vertex   1.200000e+02 -1.000000e+01 0.000000e+00
    endloop
  endfacet
  facet normal 0.000000e+00 1.000000e+00 -0.000000e+00
    outer loop
      vertex   1.600000e+02 -5.000000e+01 -1.600000e+00
      vertex   1.200000e+02 -5.000000e+01 -1.600000e+00
      vertex   1.600000e+02 -5.000000e+01 0.000000e+00
    endloop
  endfacet
  facet normal 0.000000e+00 1.000000e+00 0.000000e+00
    outer loop
      vertex   1.600000e+02 -5.000000e+01 0.000000e+00
      vertex   1.200000e+02 -5.000000e+01 -1.600000e+00
      vertex   1.200000e+02 -5.000000e+01 0.000000e+00
    endloop
  endfacet
  facet normal 1.000000e+00 0.000000e+00 0.000000e+00
    outer loop
      vertex   1.600000e+02 -7.000000e+01 -1.600000e+00
      vertex   1.600000e+02 -5.000000e+01 -1.600000e+00
      vertex   1.600000e+02 -7.000000e+01 0.000000e+00
    endloop
  endfacet
  facet normal 1.000000e+00 -0.000000e+00 0.000000e+00
    outer loop
      vertex   1.600000e+02 -7.000000e+01 0.000000e+00
      vertex   1.600000e+02 -5.000000e+01 -1.600000e+00
      vertex   1.600000e+02 -5.000000e+01 0.000000e+00
    endloop
  endfacet
  facet normal 2.235174e-08 -1.000000e+00 0.000000e+00
    outer loop
      vertex   1.200000e+02 -7.000000e+01 -1.600000e+00
      vertex   1.600000e+02 -7.000000e+01 -1.600000e+00
      vertex   1.200000e+02 -7.000000e+01 0.000000e+00
    endloop
  endfacet
  facet normal 2.235174e-08 -1.000000e+00 0.000000e+00
    outer loop
      vertex   1.200000e+02 -7.000000e+01 0.000000e+00
      vertex   1.600000e+02 -7.000000e+01 -1.600000e+00
      vertex   1.600000e+02 -7.000000e+01 0.000000e+00
    endloop
  endfacet
  facet normal 1.000000e+00 0.000000e+00 0.000000e+00
    outer loop
      vertex   1.200000e+02 -1.100000e+02 -1.600000e+00
      vertex   1.200000e+02 -7.000000e+01 -1.600000e+00
      vertex   1.200000e+02 -1.100000e+02 0.000000e+00
    endloop
  endfacet
  facet normal 1.000000e+00 -0.000000e+00 0.000000e+00
    outer loop
      vertex   1.200000e+02 -1.100000e+02 0.000000e+00
      vertex   1.200000e+02 -7.000000e+01 -1.600000e+00
      vertex   1.200000e+02 -7.000000e+01 0.000000e+00
    endloop
  endfacet
  facet normal 0.000000e+00 -1.000000e+00 0.000000e+00
    outer loop
      vertex   1.000000e+02 -1.100000e+02 -1.600000e+00
      vertex   1.200000e+02 -1.100000e+02 -1.600000e+00
      vertex   1.000000e+02 -1.100000e+02 0.000000e+00
    endloop
  endfacet
  facet normal 0.000000e+00 -1.000000e+00 0.000000e+00
    outer loop
      vertex   1.000000e+02 -1.100000e+02 0.000000e+00
      vertex   1.200000e+02 -1.100000e+02 -1.600000e+00
      vertex   1.200000e+02 -1.100000e+02 0.000000e+00
    endloop
  endfacet
  facet normal 0.000000e+00 0.000000e+00 1.000000e+00
    outer loop
      vertex   1.000000e+02 -1.100000e+02 0.000000e+00
      vertex   1.200000e+02 -1.100000e+02 0.000000e+00
      vertex   1.000000e+02 -7.000000e+01 0.000000e+00
    endloop
  endfacet
  facet normal -0.000000e+00 0.000000e+00 1.000000e+00
    outer loop
      vertex   1.000000e+02 -7.000000e+01 0.000000e+00
      vertex   1.200000e+02 -1.100000e+02 0.000000e+00
      vertex   1.200000e+02 -7.000000e+01 0.000000e+00
    endloop
  endfacet
  facet normal 0.000000e+00 0.000000e+00 1.000000e+00
    outer loop
      vertex   1.000000e+02 -7.000000e+01 0.000000e+00
      vertex   1.200000e+02 -7.000000e+01 0.000000e+00
      vertex   1.200000e+02 -5.000000e+01 0.000000e+00
    endloop
  endfacet
  facet normal 0.000000e+00 0.000000e+00 1.000000e+00
    outer loop
      vertex   1.200000e+02 -5.000000e+01 0.000000e+00
      vertex   1.200000e+02 -7.000000e+01 0.000000e+00
      vertex   1.600000e+02 -7.000000e+01 0.000000e+00
    endloop
  endfacet
  facet normal -0.000000e+00 0.000000e+00 1.000000e+00
    outer loop
      vertex   1.200000e+02 -5.000000e+01 0.000000e+00
      vertex   1.600000e+02 -7.000000e+01 0.000000e+00
      vertex   1.600000e+02 -5.000000e+01 0.000000e+00
    endloop
  endfacet
  facet normal 0.000000e+00 0.000000e+00 1.000000e+00
    outer loop
      vertex   1.200000e+02 -1.000000e+01 0.000000e+00
      vertex   1.000000e+02 -1.000000e+01 0.000000e+00
      vertex   1.200000e+02 -5.000000e+01 0.000000e+00
    endloop
  endfacet
  facet normal 0.000000e+00 0.000000e+00 1.000000e+00
    outer loop
      vertex   1.200000e+02 -5.000000e+01 0.000000e+00
      vertex   1.000000e+02 -1.000000e+01 0.000000e+00
      vertex   1.000000e+02 -5.000000e+01 0.000000e+00
    endloop
  endfacet
  facet normal 0.000000e+00 0.000000e+00 1.000000e+00
    outer loop
      vertex   1.200000e+02 -5.000000e+01 0.000000e+00
      vertex   1.000000e+02 -5.000000e+01 0.000000e+00
      vertex   1.000000e+02 -7.000000e+01 0.000000e+00
    endloop
  endfacet
  facet normal 0.000000e+00 -0.000000e+00 1.000000e+00
    outer loop
      vertex   1.000000e+02 -7.000000e+01 0.000000e+00
      vertex   1.000000e+02 -5.000000e+01 0.000000e+00
      vertex   6.000000e+01 -5.000000e+01 0.000000e+00
    endloop
  endfacet
  facet normal 0.000000e+00 0.000000e+00 1.000000e+00
    outer loop
      vertex   1.000000e+02 -7.000000e+01 0.000000e+00
      vertex   6.000000e+01 -5.000000e+01 0.000000e+00
      vertex   6.000000e+01 -7.000000e+01 0.000000e+00
    endloop
  endfacet
  facet normal 0.000000e+00 0.000000e+00 -1.000000e+00
    outer loop
      vertex   1.200000e+02 -1.100000e+02 -1.600000e+00
      vertex   1.000000e+02 -1.100000e+02 -1.600000e+00
      vertex   1.200000e+02 -7.000000e+01 -1.600000e+00
    endloop
  endfacet
  facet normal -0.000000e+00 0.000000e+00 -1.000000e+00
    outer loop
      vertex   1.200000e+02 -7.000000e+01 -1.600000e+00
      vertex   1.000000e+02 -1.100000e+02 -1.600000e+00
      vertex   1.000000e+02 -7.000000e+01 -1.600000e+00
    endloop
  endfacet
  facet normal 0.000000e+00 0.000000e+00 -1.000000e+00
    outer loop
      vertex   1.200000e+02 -7.000000e+01 -1.600000e+00
      vertex   1.000000e+02 -7.000000e+01 -1.600000e+00
      vertex   1.200000e+02 -5.000000e+01 -1.600000e+00
    endloop
  endfacet
  facet normal -0.000000e+00 0.000000e+00 -1.000000e+00
    outer loop
      vertex   1.200000e+02 -5.000000e+01 -1.600000e+00
      vertex   1.000000e+02 -7.000000e+01 -1.600000e+00
      vertex   1.000000e+02 -5.000000e+01 -1.600000e+00
    endloop
  endfacet
  facet normal 0.000000e+00 0.000000e+00 -1.000000e+00
    outer loop
      vertex   1.200000e+02 -5.000000e+01 -1.600000e+00
      vertex   1.000000e+02 -5.000000e+01 -1.600000e+00
      vertex   1.000000e+02 -1.000000e+01 -1.600000e+00
    endloop
  endfacet
  facet normal 0.000000e+00 0.000000e+00 -1.000000e+00
    outer loop
      vertex   6.000000e+01 -7.000000e+01 -1.600000e+00
      vertex   6.000000e+01 -5.000000e+01 -1.600000e+00
      vertex   1.000000e+02 -7.000000e+01 -1.600000e+00
    endloop
  endfacet
  facet normal 0.000000e+00 0.000000e+00 -1.000000e+00
    outer loop
      vertex   1.000000e+02 -7.000000e+01 -1.600000e+00
      vertex   6.000000e+01 -5.000000e+01 -1.600000e+00
      vertex   1.000000e+02 -5.000000e+01 -1.600000e+00
    endloop
  endfacet
  facet normal 0.000000e+00 0.000000e+00 -1.000000e+00
    outer loop
      vertex   1.000000e+02 -1.000000e+01 -1.600000e+00
      vertex   1.200000e+02 -1.000000e+01 -1.600000e+00
      vertex   1.200000e+02 -5.000000e+01 -1.600000e+00
    endloop
  endfacet
  facet normal -0.000000e+00 -0.000000e+00 -1.000000e+00
    outer loop
      vertex   1.600000e+02 -5.000000e+01 -1.600000e+00
      vertex   1.600000e+02 -7.000000e+01 -1.600000e+00
      vertex   1.200000e+02 -5.000000e+01 -1.600000e+00
    endloop
  endfacet
  facet normal 0.000000e+00 0.000000e+00 -1.000000e+00
    outer loop
      vertex   1.200000e+02 -5.000000e+01 -1.600000e+00
      vertex   1.600000e+02 -7.000000e+01 -1.600000e+00
      vertex   1.200000e+02 -7.000000e+01 -1.600000e+00
    endloop
  endfacet
endsolid
